<?xml version="1.0" encoding="UTF-8" standalone="no"?><!-- Generator: Gravit.io --><svg xmlns="http://www.w3.org/2000/svg" xmlns:xlink="http://www.w3.org/1999/xlink" style="isolation:isolate" viewBox="0 0 512 512" width="512pt" height="512pt"><defs><clipPath id="_clipPath_qbg8tRkrINEXqF25OvkXFi9ZEsz5q42c"><rect width="512" height="512"/></clipPath></defs><g clip-path="url(#_clipPath_qbg8tRkrINEXqF25OvkXFi9ZEsz5q42c)"><rect width="512" height="512" style="fill:rgb(51,92,103)" fill-opacity="0"/><path d="M 50 0 L 462 0 C 489.596 0 512 22.404 512 50 L 512 462 C 512 489.596 489.596 512 462 512 L 50 512 C 22.404 512 0 489.596 0 462 L 0 50 C 0 22.404 22.404 0 50 0 Z" style="stroke:none;fill:#335C67;stroke-miterlimit:10;"/><path d=" M 115.993 115.993 C 96.146 135.839 88.979 163.564 94.49 189.1 C 72.536 203.26 58 227.933 58 256 C 58 284.067 72.536 308.739 94.49 322.9 C 88.979 348.436 96.146 376.16 115.993 396.008 C 135.84 415.853 163.564 423.021 189.1 417.511 C 203.261 439.465 227.933 454 256 454 C 284.067 454 308.739 439.465 322.9 417.511 C 348.436 423.021 376.16 415.853 396.008 396.008 C 415.853 376.16 423.021 348.436 417.511 322.9 C 439.465 308.739 454 284.067 454 256 C 454 227.933 439.465 203.26 417.511 189.1 C 423.021 163.564 415.853 135.84 396.008 115.993 C 376.16 96.146 348.436 88.979 322.9 94.49 C 308.739 72.536 284.067 58 256 58 C 227.933 58 203.26 72.536 189.1 94.49 C 163.564 88.979 135.84 96.146 115.993 115.993 Z " fill="rgb(255,243,176)"/></g></svg>